<svg xmlns="http://www.w3.org/2000/svg" xmlns:xlink="http://www.w3.org/1999/xlink" width="1080" zoomAndPan="magnify" viewBox="0 0 810 809.999993" height="1080" preserveAspectRatio="xMidYMid meet" version="1.0"><rect x="-81" width="972" fill="#ffffff" y="-80.999999" height="971.999992" fill-opacity="1"/><rect x="-81" width="972" fill="#ffffff" y="-80.999999" height="971.999992" fill-opacity="1"/><rect x="-81" width="972" fill="#ffffff" y="-80.999999" height="971.999992" fill-opacity="1"/><path fill="#404040" d="M 304.058594 485.953125 C 297.972656 485.953125 292.75 484.316406 288.390625 481.046875 C 284.03125 477.777344 281.851562 473.28125 281.851562 467.558594 C 281.851562 461.925781 290.570312 424.457031 308.011719 355.152344 C 325.449219 285.847656 334.171875 247.242188 334.171875 239.339844 C 334.171875 222.355469 328.492188 213.863281 317.140625 213.863281 C 312.417969 213.863281 308.28125 215.40625 304.742188 218.496094 C 294.292969 226.761719 283.847656 250.921875 273.402344 290.980469 C 273.402344 291.433594 273.175781 292.207031 272.722656 293.296875 C 272.269531 294.386719 271.949219 295.066406 271.769531 295.339844 C 271.496094 295.519531 271.175781 295.839844 270.8125 296.292969 C 270.359375 296.746094 269.589844 296.972656 268.5 296.972656 C 267.40625 296.972656 266.410156 296.972656 265.5 296.972656 C 264.683594 296.972656 262.957031 296.972656 260.324219 296.972656 L 251.195312 296.972656 C 248.558594 294.339844 247.242188 292.34375 247.242188 290.980469 C 247.242188 287.527344 250.058594 277.308594 255.691406 260.324219 C 263.957031 234.980469 273.765625 216.675781 285.121094 205.414062 C 295.566406 194.878906 307.148438 189.609375 319.863281 189.609375 C 347.296875 189.609375 366.460938 199.417969 377.363281 219.039062 C 382.175781 227.394531 384.582031 233.527344 384.582031 237.433594 C 384.582031 238.25 384.808594 238.660156 385.265625 238.660156 L 392.347656 231.574219 C 419.417969 203.597656 449.757812 189.609375 483.363281 189.609375 C 507.34375 189.609375 526.511719 195.511719 540.863281 207.320312 C 555.214844 219.128906 562.390625 236.34375 562.390625 258.960938 C 562.390625 269.042969 561.753906 277.355469 560.480469 283.894531 C 559.574219 289.070312 546.265625 342.800781 520.5625 445.078125 C 494.855469 547.265625 481.367188 599.675781 480.09375 602.3125 C 474.371094 614.117188 464.5625 620.023438 450.664062 620.023438 C 444.488281 620.023438 439.445312 618.160156 435.539062 614.4375 C 431.636719 610.710938 429.453125 606.035156 429 600.402344 C 429 597.316406 455.386719 489.8125 508.160156 277.898438 C 509.433594 271.359375 510.070312 263.09375 510.070312 253.101562 C 510.070312 227.394531 499.394531 214.542969 478.050781 214.542969 C 470.238281 214.542969 464.5625 214.953125 461.019531 215.769531 C 430.5 222.308594 404.566406 243.925781 383.21875 280.625 L 378.722656 288.390625 L 357.0625 376 C 342.707031 433.132812 334.441406 463.878906 332.261719 468.242188 C 326.539062 480.050781 317.140625 485.953125 304.058594 485.953125 Z M 304.058594 485.953125 " fill-opacity="1" fill-rule="nonzero"/></svg>